<svg width="470" height="315" viewBox="0 0 470 315" fill="none" xmlns="http://www.w3.org/2000/svg">
<path d="M308 56L16.0779 57.4217C7.21102 57.4649 0 50.2889 0 41.4219V16.052C0 7.19518 7.19515 0.0233608 16.0519 0.0521167L308 1C393.605 1 470 71.3958 470 157C470 242.604 393.605 315 308 315H243C234.164 315 227 307.837 227 299V274C227 265.163 234.164 258 243 258H308C363.781 258 409 212.781 409 157C409 101.219 363.781 56 308 56Z" fill="white"/>
<path d="M196 153C196 139.745 185.255 129 172 129H16C7.16344 129 0 136.163 0 145V171C0 179.837 7.16344 187 16 187H121C129.837 187 137 194.163 137 203V299C137 307.837 144.163 315 153 315H180C188.837 315 196 307.837 196 299V153Z" fill="white"/>
</svg>
