<svg width="1776" height="376" viewBox="0 0 1776 376" fill="none" xmlns="http://www.w3.org/2000/svg">
<path d="M308 112L16.0779 113.422C7.21102 113.465 0 106.289 0 97.4219V72.052C0 63.1952 7.19515 56.0234 16.0519 56.0521L308 57C393.605 57 470 127.396 470 213C470 298.604 393.605 371 308 371H243C234.164 371 227 363.837 227 355V330C227 321.163 234.164 314 243 314H308C363.781 314 409 268.781 409 213C409 157.219 363.781 112 308 112Z" fill="white"/>
<path d="M196 209C196 195.745 185.255 185 172 185H16C7.16344 185 0 192.163 0 201V227C0 235.837 7.16345 243 16 243H121C129.837 243 137 250.163 137 259V355C137 363.837 144.163 371 153 371H180C188.837 371 196 363.837 196 355V209Z" fill="white"/>
<path d="M591.29 375.68C577.51 375.68 564.64 373.99 552.68 370.61C540.72 367.23 530.06 362.55 520.7 356.57C511.34 350.33 503.54 343.44 497.3 335.9C491.32 328.36 487.42 320.43 485.6 312.11L537.86 296.51C541.24 305.35 547.22 313.02 555.8 319.52C564.38 325.76 575.17 329.01 588.17 329.27C601.95 329.53 613.13 326.54 621.71 320.3C630.55 314.06 634.97 306 634.97 296.12C634.97 287.54 631.46 280.39 624.44 274.67C617.68 268.69 608.32 264.14 596.36 261.02L560.87 251.66C547.61 248.28 535.91 243.21 525.77 236.45C515.63 229.43 507.7 220.85 501.98 210.71C496.26 200.57 493.4 188.74 493.4 175.22C493.4 149.48 501.85 129.46 518.75 115.16C535.91 100.6 560.09 93.32 591.29 93.32C608.71 93.32 623.92 95.92 636.92 101.12C650.18 106.06 661.23 113.21 670.07 122.57C678.91 131.93 685.67 142.98 690.35 155.72L638.48 171.71C635.36 162.87 629.64 155.33 621.32 149.09C613 142.85 602.47 139.73 589.73 139.73C576.73 139.73 566.46 142.72 558.92 148.7C551.64 154.68 548 163.13 548 174.05C548 182.63 550.86 189.39 556.58 194.33C562.56 199.27 570.62 203.04 580.76 205.64L616.64 214.61C640.04 220.33 658.24 230.6 671.24 245.42C684.24 260.24 690.74 276.75 690.74 294.95C690.74 311.07 686.84 325.24 679.04 337.46C671.24 349.42 659.93 358.78 645.11 365.54C630.29 372.3 612.35 375.68 591.29 375.68ZM809.465 375.68C787.885 375.68 771.505 370.35 760.325 359.69C749.405 349.03 743.945 333.82 743.945 314.06V115.16H795.425V302.75C795.425 311.07 797.245 317.44 800.885 321.86C804.525 326.02 809.855 328.1 816.875 328.1C819.475 328.1 822.335 327.58 825.455 326.54C828.575 325.24 831.825 323.42 835.205 321.08L853.145 359.69C846.905 364.37 839.885 368.14 832.085 371C824.545 374.12 817.005 375.68 809.465 375.68ZM712.355 219.68V176H844.175V219.68H712.355ZM922.309 268.43C922.309 247.37 926.339 229.95 934.399 216.17C942.719 202.39 953.249 192.12 965.989 185.36C978.989 178.6 992.509 175.22 1006.55 175.22V225.14C994.589 225.14 983.279 226.57 972.619 229.43C962.219 232.29 953.769 236.97 947.269 243.47C940.769 249.97 937.519 258.29 937.519 268.43H922.309ZM886.039 371V176H937.519V371H886.039ZM1121.95 375.68C1102.71 375.68 1085.68 371.39 1070.86 362.81C1056.04 353.97 1044.34 341.88 1035.76 326.54C1027.44 311.2 1023.28 293.52 1023.28 273.5C1023.28 253.48 1027.57 235.8 1036.15 220.46C1044.99 205.12 1056.95 193.16 1072.03 184.58C1087.37 175.74 1104.92 171.32 1124.68 171.32C1141.84 171.32 1157.57 175.87 1171.87 184.97C1186.43 193.81 1198 206.94 1206.58 224.36C1215.42 241.52 1219.84 262.45 1219.84 287.15H1072.03L1076.71 282.47C1076.71 292.09 1079.05 300.54 1083.73 307.82C1088.67 314.84 1094.91 320.3 1102.45 324.2C1110.25 327.84 1118.57 329.66 1127.41 329.66C1138.07 329.66 1146.78 327.45 1153.54 323.03C1160.3 318.35 1165.5 312.37 1169.14 305.09L1215.16 323.03C1209.7 333.95 1202.55 343.44 1193.71 351.5C1185.13 359.3 1174.86 365.28 1162.9 369.44C1150.94 373.6 1137.29 375.68 1121.95 375.68ZM1079.44 253.61L1074.76 248.93H1168.75L1164.46 253.61C1164.46 244.25 1162.25 236.84 1157.83 231.38C1153.41 225.66 1147.95 221.5 1141.45 218.9C1135.21 216.3 1129.1 215 1123.12 215C1117.14 215 1110.77 216.3 1104.01 218.9C1097.25 221.5 1091.4 225.66 1086.46 231.38C1081.78 236.84 1079.44 244.25 1079.44 253.61ZM1367.54 371L1365.98 331.61V272.33C1365.98 260.63 1364.68 250.62 1362.08 242.3C1359.74 233.98 1355.84 227.61 1350.38 223.19C1345.18 218.51 1338.03 216.17 1328.93 216.17C1320.61 216.17 1313.07 217.99 1306.31 221.63C1299.55 225.27 1293.83 230.86 1289.15 238.4L1243.91 222.8C1247.55 214.48 1252.88 206.42 1259.9 198.62C1266.92 190.56 1276.02 184.06 1287.2 179.12C1298.64 173.92 1312.55 171.32 1328.93 171.32C1348.69 171.32 1365.07 175.09 1378.07 182.63C1391.33 190.17 1401.08 200.83 1407.32 214.61C1413.82 228.13 1416.94 244.25 1416.68 262.97L1415.51 371H1367.54ZM1312.94 375.68C1289.54 375.68 1271.34 370.48 1258.34 360.08C1245.6 349.68 1239.23 334.99 1239.23 316.01C1239.23 295.21 1246.12 279.61 1259.9 269.21C1273.94 258.55 1293.57 253.22 1318.79 253.22H1368.32V291.44H1336.73C1319.83 291.44 1308.13 293.52 1301.63 297.68C1295.13 301.58 1291.88 307.17 1291.88 314.45C1291.88 320.17 1294.48 324.72 1299.68 328.1C1304.88 331.22 1312.16 332.78 1321.52 332.78C1330.1 332.78 1337.64 330.83 1344.14 326.93C1350.9 322.77 1356.23 317.57 1360.13 311.33C1364.03 304.83 1365.98 298.2 1365.98 291.44H1378.46C1378.46 317.96 1373.39 338.63 1363.25 353.45C1353.37 368.27 1336.6 375.68 1312.94 375.68ZM1457.71 371V176H1506.07L1508.41 201.35C1514.39 191.47 1522.06 184.06 1531.42 179.12C1540.78 173.92 1551.18 171.32 1562.62 171.32C1578.48 171.32 1591.74 174.7 1602.4 181.46C1613.32 188.22 1621.25 198.62 1626.19 212.66C1631.91 199.4 1639.97 189.26 1650.37 182.24C1660.77 174.96 1672.86 171.32 1686.64 171.32C1709.52 171.32 1726.94 178.6 1738.9 193.16C1750.86 207.46 1756.84 229.56 1756.84 259.46V371H1705.36V271.16C1705.36 257.9 1703.93 247.63 1701.07 240.35C1698.21 233.07 1694.31 227.87 1689.37 224.75C1684.43 221.37 1678.58 219.68 1671.82 219.68C1659.34 219.42 1649.72 223.45 1642.96 231.77C1636.2 240.09 1632.82 252.44 1632.82 268.82V371H1581.34V271.16C1581.34 257.9 1579.91 247.63 1577.05 240.35C1574.45 233.07 1570.55 227.87 1565.35 224.75C1560.41 221.37 1554.56 219.68 1547.8 219.68C1535.32 219.42 1525.7 223.45 1518.94 231.77C1512.44 240.09 1509.19 252.44 1509.19 268.82V371H1457.71Z" fill="white"/>
</svg>
